<svg fill="#9fba71" height="512" viewBox="0 0 64 64" width="512" xmlns="http://www.w3.org/2000/svg"><g id="outline"><path d="m56.318 17.534a9.932 9.932 0 0 0 .667-3.534 8.244 8.244 0 0 0 -3.517-7.237 8.684 8.684 0 0 0 -6.881-1.032 6.532 6.532 0 0 0 -5.587-3.731 5.589 5.589 0 0 0 -4.134 1.688 8.642 8.642 0 0 0 -4.866-1.688 8.453 8.453 0 0 0 -6.023 2.5 6.784 6.784 0 0 0 -6.7-1.331 6.041 6.041 0 0 0 -4.129 4.466 11.392 11.392 0 0 0 -3.148-.635 8.009 8.009 0 0 0 -8 8 6.9 6.9 0 0 0 2.383 4.864 9.649 9.649 0 0 0 -4.383 8.136 9.993 9.993 0 0 0 16.856 7.27l3.317 3.317a6.2 6.2 0 0 1 1.827 4.413v15a3.869 3.869 0 0 0 4 4h7a3.869 3.869 0 0 0 4-4v-9a8.72 8.72 0 0 1 2.537-6.123l5.887-5.887a10.914 10.914 0 0 0 4.576 1.01c5.794 0 10-4.626 10-11a10.7 10.7 0 0 0 -5.682-9.466zm-16.195 23.929a10.731 10.731 0 0 0 -3.123 7.537v1.743a2.235 2.235 0 0 1 -4.077-.128l-1.846.77a4.232 4.232 0 0 0 5.923 2.106v4.509a1.856 1.856 0 0 1 -2 2h-7a1.856 1.856 0 0 1 -2-2v-11.247a4.4 4.4 0 0 0 1.527.28 4.314 4.314 0 0 0 .611-.043 4.614 4.614 0 0 0 2.562-1.277l-1.4-1.426a2.6 2.6 0 0 1 -1.437.723 2.676 2.676 0 0 1 -1.863-.491v-1.519a8.186 8.186 0 0 0 -2.413-5.827l-3.417-3.417a9.937 9.937 0 0 0 1.585-3.587l7.538 7.538 1.414-1.414-7.481-7.481a8.6 8.6 0 0 0 1.774.188 7.894 7.894 0 0 0 6.145-2.6 8.345 8.345 0 0 0 1.791.9l-.922 5.533 1.972.33.892-5.35a12.454 12.454 0 0 0 2.122.187 7.945 7.945 0 0 0 4-1.071v.071a10.935 10.935 0 0 0 .716 3.87l-7.423 7.423 1.414 1.414 6.942-6.942a11.08 11.08 0 0 0 2.984 3.188zm11.877-5.463a9.011 9.011 0 0 1 -9-9c0-.237-.075-1.518-.019-1.81a1 1 0 0 0 -1.63-.951 6.559 6.559 0 0 1 -4.351 1.761 7.9 7.9 0 0 1 -5.3-1.718.987.987 0 0 0 -.783-.282 1 1 0 0 0 -.722.4 6 6 0 0 1 -5.195 2.6 6.657 6.657 0 0 1 -3.489-.986 1 1 0 0 0 -1.5.984c.024.191-.008.86-.008 1a8 8 0 0 1 -16.003.002c0-3 1.476-5.332 4.512-7.141a1 1 0 0 0 .145-1.612c-1.314-1.147-2.657-2.547-2.657-4.247a6.006 6.006 0 0 1 6-6 13.114 13.114 0 0 1 3.628.928 1 1 0 0 0 1.372-.928 4.03 4.03 0 0 1 2.907-3.937 4.729 4.729 0 0 1 5.293 1.537 1 1 0 0 0 1.632-.045 6.48 6.48 0 0 1 5.168-2.555 7.494 7.494 0 0 1 4.414 1.811 1 1 0 0 0 1.336-.15 3.94 3.94 0 0 1 3.25-1.661 4.54 4.54 0 0 1 4.036 3.267 1 1 0 0 0 1.365.649 6.537 6.537 0 0 1 5.971.522 6.239 6.239 0 0 1 2.613 5.562 7.581 7.581 0 0 1 -.861 3.521 1 1 0 0 0 .474 1.4 8.783 8.783 0 0 1 5.402 8.079c0 5.3-3.29 9-8 9z"/><path d="m46.9 16a9.1 9.1 0 0 1 4.506 1.8l1.188-1.6a11.063 11.063 0 0 0 -5.494-2.195 11.5 11.5 0 0 0 -7.172 1.756 14.309 14.309 0 0 0 -10.835-6.761 14.469 14.469 0 0 0 -13.968 7.513l1.75.966a12.471 12.471 0 0 1 12.032-6.479 12.308 12.308 0 0 1 9.376 5.943 15.893 15.893 0 0 0 -3.119 3.512l1.672 1.1c2.498-3.811 6.364-5.938 10.064-5.555z"/><path d="m13.606 20.081a8.207 8.207 0 0 0 -4.587 5.726l1.962.386a6.239 6.239 0 0 1 3.413-4.274 5.868 5.868 0 0 1 5.981.862l1.25-1.561a7.861 7.861 0 0 0 -8.019-1.139z"/><path d="m53.279 22.04a6.61 6.61 0 0 0 -7.079 2.36l1.6 1.2a4.563 4.563 0 0 1 8.2 2.464l2-.128a6.591 6.591 0 0 0 -4.721-5.896z"/><path d="m13 28h2v2h-2z"/><path d="m11 14h2v2h-2z"/><path d="m24 15h2v2h-2z"/><path d="m30 19h2v2h-2z"/><path d="m40 9h2v2h-2z"/><path d="m50 10h2v2h-2z"/><path d="m46 18h2v2h-2z"/><path d="m51 32h2v2h-2z"/><path d="m48 28h2v2h-2z"/></g></svg>